<svg xmlns="http://www.w3.org/2000/svg" width="24" height="24" viewBox="0 0 24 24">
    <g fill="#FEFEFE" fill-rule="evenodd">
        <path d="M19.758 10.797a1.617 1.617 0 0 0-3.216-.238c-.022.194-.212.397-.428.397h-2.07v2.088h2.07c.216 0 .406.203.428.398A1.616 1.616 0 1 0 19.22 12a1.61 1.61 0 0 0 .537-1.203M7.886 10.956c-.216 0-.405-.203-.428-.397A1.617 1.617 0 1 0 4.78 12a1.616 1.616 0 1 0 2.678 1.441c.023-.194.212-.397.428-.397h2.07v-2.088h-2.07z"/>
        <path d="M13.441 16.61c-.194-.022-.397-.212-.397-.428V7.817c0-.216.203-.405.396-.427h.001a1.617 1.617 0 1 0-1.44-2.679 1.617 1.617 0 1 0-1.442 2.679c.194.022.397.211.397.427v8.366c0 .215-.203.405-.397.426A1.617 1.617 0 1 0 12 19.29a1.617 1.617 0 1 0 1.441-2.68"/>
    </g>
</svg>
