<svg xmlns="http://www.w3.org/2000/svg" width="24" height="24" viewBox="0 0 24 24">
    <g fill="#7A7A7A" fill-rule="evenodd">
        <path d="M17.674 14.831a5.668 5.668 0 0 1-5.675 5.663 5.668 5.668 0 0 1-5.673-5.663 5.67 5.67 0 0 1 5.673-5.664 5.669 5.669 0 0 1 5.675 5.664zm-3.441 0c0-1.231-1-2.23-2.233-2.23a2.231 2.231 0 0 0-2.233 2.23c0 1.23 1 2.228 2.233 2.228a2.23 2.23 0 0 0 2.233-2.228zM14.232 5.485c0 1.23-1 2.228-2.233 2.228a2.23 2.23 0 1 1 0-4.457c1.233 0 2.233.999 2.233 2.23M8.724 7.385A2.232 2.232 0 0 1 6.49 9.613a2.23 2.23 0 0 1-2.232-2.228 2.233 2.233 0 1 1 4.466 0M19.742 7.385c0 1.23-1 2.228-2.233 2.228a2.23 2.23 0 0 1-2.233-2.228c0-1.23 1-2.23 2.233-2.23 1.234 0 2.233 1 2.233 2.23"/>
    </g>
</svg>
