<svg xmlns="http://www.w3.org/2000/svg" width="52" height="55" viewBox="0 0 52 55">
    <defs>
        <filter id="a" width="234.4%" height="219.4%" x="-67.2%" y="-59.7%" filterUnits="objectBoundingBox">
            <feOffset dy="1" in="SourceAlpha" result="shadowOffsetOuter1"/>
            <feGaussianBlur in="shadowOffsetOuter1" result="shadowBlurOuter1" stdDeviation="5"/>
            <feColorMatrix in="shadowBlurOuter1" result="shadowMatrixOuter1" values="0 0 0 0 0 0 0 0 0 0 0 0 0 0 0 0 0 0 0.2 0"/>
            <feMerge>
                <feMergeNode in="shadowMatrixOuter1"/>
                <feMergeNode in="SourceGraphic"/>
            </feMerge>
        </filter>
    </defs>
    <g fill="none" fill-rule="evenodd" filter="url(#a)" transform="translate(10 9)">
        <path fill="#FEFEFE" d="M19.618 31.59a2.097 2.097 0 0 1-.004.005l-2.38 3.658c-.579.891-1.602 1-2.283.243a1.943 1.943 0 0 1-.186-.243l-2.38-3.658a2.1 2.1 0 0 1-.003-.006C5.288 29.95 0 23.592 0 16 0 7.163 7.163 0 16 0s16 7.163 16 16c0 7.592-5.288 13.95-12.382 15.59z"/>
        <circle cx="16" cy="16" r="14" fill="#FFC200"/>
        <path d="M8 8h16v16H8z"/>
        <path fill="#FFF" fill-rule="nonzero" d="M21.333 10H12c-.733 0-1.333.6-1.333 1.333v5.334a2.666 2.666 0 0 0 2.666 2.666h4A2.666 2.666 0 0 0 20 16.667v-2h1.333c.734 0 1.334-.6 1.334-1.334v-2c0-.733-.6-1.333-1.334-1.333zm0 3.333H20v-2h1.333v2zM10 22h10.667c.366 0 .666-.3.666-.667 0-.366-.3-.666-.666-.666H10c-.367 0-.667.3-.667.666 0 .367.3.667.667.667z"/>
    </g>
</svg>
